<svg width="800" height="600" xmlns="http://www.w3.org/2000/svg">
  <defs>
    <linearGradient id="grad2" x1="0%" y1="0%" x2="100%" y2="100%">
      <stop offset="0%" style="stop-color:#059669;stop-opacity:0.8" />
      <stop offset="100%" style="stop-color:#10b981;stop-opacity:0.9" />
    </linearGradient>
  </defs>
  <rect width="100%" height="100%" fill="url(#grad2)"/>
  <rect x="50" y="50" width="700" height="500" rx="20" ry="20" fill="white" fill-opacity="0.1" stroke="white" stroke-width="2"/>
  
  <!-- Chart elements -->
  <rect x="100" y="150" width="60" height="300" rx="5" ry="5" fill="white" fill-opacity="0.3"/>
  <rect x="200" y="200" width="60" height="250" rx="5" ry="5" fill="white" fill-opacity="0.4"/>
  <rect x="300" y="100" width="60" height="350" rx="5" ry="5" fill="white" fill-opacity="0.5"/>
  <rect x="400" y="220" width="60" height="230" rx="5" ry="5" fill="white" fill-opacity="0.4"/>
  <rect x="500" y="120" width="60" height="330" rx="5" ry="5" fill="white" fill-opacity="0.3"/>
  <rect x="600" y="180" width="60" height="270" rx="5" ry="5" fill="white" fill-opacity="0.4"/>
  
  <!-- Line chart overlay -->
  <path d="M130 350 L230 280 L330 180 L430 250 L530 200 L630 220" stroke="white" stroke-width="4" fill="none" stroke-linecap="round" stroke-linejoin="round"/>
  <circle cx="130" cy="350" r="8" fill="white"/>
  <circle cx="230" cy="280" r="8" fill="white"/>
  <circle cx="330" cy="180" r="8" fill="white"/>
  <circle cx="430" cy="250" r="8" fill="white"/>
  <circle cx="530" cy="200" r="8" fill="white"/>
  <circle cx="630" cy="220" r="8" fill="white"/>
  
  <text x="400" y="80" font-family="Arial" font-size="36" fill="white" text-anchor="middle" font-weight="bold">PPC Campaign Analytics</text>
  <text x="400" y="490" font-family="Arial" font-size="24" fill="white" text-anchor="middle">Data-Driven Performance</text>
</svg>
