<svg width="800" height="600" xmlns="http://www.w3.org/2000/svg">
  <!-- Outdated website mockup -->
  <rect width="100%" height="100%" fill="#eeeeee"/>
  
  <!-- Header -->
  <rect x="50" y="50" width="700" height="80" fill="#cccccc"/>
  <rect x="80" y="65" width="200" height="50" fill="#999999"/>
  <rect x="400" y="75" width="60" height="30" fill="#999999"/>
  <rect x="480" y="75" width="60" height="30" fill="#999999"/>
  <rect x="560" y="75" width="60" height="30" fill="#999999"/>
  <rect x="640" y="75" width="60" height="30" fill="#999999"/>
  
  <!-- Main content -->
  <rect x="50" y="150" width="500" height="300" fill="#dddddd"/>
  <rect x="80" y="180" width="440" height="40" fill="#999999"/>
  <rect x="80" y="240" width="440" height="20" fill="#aaaaaa"/>
  <rect x="80" y="270" width="440" height="20" fill="#aaaaaa"/>
  <rect x="80" y="300" width="440" height="20" fill="#aaaaaa"/>
  <rect x="80" y="350" width="200" height="50" fill="#999999"/>
  
  <!-- Sidebar -->
  <rect x="570" y="150" width="180" height="300" fill="#dddddd"/>
  <rect x="590" y="180" width="140" height="30" fill="#999999"/>
  <rect x="590" y="230" width="140" height="30" fill="#999999"/>
  <rect x="590" y="280" width="140" height="30" fill="#999999"/>
  <rect x="590" y="330" width="140" height="30" fill="#999999"/>
  <rect x="590" y="380" width="140" height="30" fill="#999999"/>
  
  <!-- Footer -->
  <rect x="50" y="470" width="700" height="80" fill="#cccccc"/>
  <rect x="80" y="495" width="120" height="30" fill="#999999"/>
  <rect x="400" y="495" width="300" height="30" fill="#999999"/>
  
  <!-- Text indicating outdated design -->
  <text x="400" y="30" font-family="Arial" font-size="24" fill="#555555" text-anchor="middle">Outdated Website Design</text>
</svg>